HIERARCHY
ROOT Hips
{
    OFFSET 0.000000 0.000000 0.000000
    CHANNELS 6 Xposition Yposition Zposition Zrotation Xrotation Yrotation
    JOINT Spine
    {
        OFFSET -0.000000 7.236184 0.000000
        CHANNELS 3 Zrotation Xrotation Yrotation
        JOINT Spine1
        {
            OFFSET -0.000000 20.420147 0.000000
            CHANNELS 3 Zrotation Xrotation Yrotation
            JOINT Neck
            {
                OFFSET -0.000000 20.336288 1.848754
                CHANNELS 3 Zrotation Xrotation Yrotation
                JOINT Head
                {
                    OFFSET -0.000000 12.354461 -1.764923
                    CHANNELS 3 Zrotation Xrotation Yrotation
                    End Site
                    {
                        OFFSET -0.000000 22.061537 0.000000
                    }
                }
            }
            JOINT LeftShoulder
            {
                OFFSET 3.573296 18.396038 -0.314103
                CHANNELS 3 Zrotation Xrotation Yrotation
                JOINT LeftArm
                {
                    OFFSET 10.880760 0.000000 0.000000
                    CHANNELS 3 Zrotation Xrotation Yrotation
                    JOINT LeftForeArm
                    {
                        OFFSET 27.185530 0.000000 0.000000
                        CHANNELS 3 Zrotation Xrotation Yrotation
                        JOINT LeftHand
                        {
                            OFFSET 27.825975 0.000000 0.000000
                            CHANNELS 3 Zrotation Xrotation Yrotation
                            End Site
                            {
                                OFFSET 13.236923 0.000000 0.000000
                            }
                        }
                    }
                }
            }
            JOINT RightShoulder
            {
                OFFSET -3.474926 18.396038 -0.314103
                CHANNELS 3 Zrotation Xrotation Yrotation
                JOINT RightArm
                {
                    OFFSET -10.880760 0.000000 0.000000
                    CHANNELS 3 Zrotation Xrotation Yrotation
                    JOINT RightForeArm
                    {
                        OFFSET -27.185530 0.000000 0.000000
                        CHANNELS 3 Zrotation Xrotation Yrotation
                        JOINT RightHand
                        {
                            OFFSET -27.825975 0.000000 0.000000
                            CHANNELS 3 Zrotation Xrotation Yrotation
                            End Site
                            {
                                OFFSET -13.236923 0.000000 0.000000
                            }
                        }
                    }
                }
            }
        }
    }
    JOINT LeftUpLeg
    {
        OFFSET 8.824615 0.000000 0.000000
        CHANNELS 3 Zrotation Xrotation Yrotation
        JOINT LeftLeg
        {
            OFFSET -0.000000 -35.111282 0.000000
            CHANNELS 3 Zrotation Xrotation Yrotation
            JOINT LeftFoot
            {
                OFFSET -0.000000 -42.324711 0.000000
                CHANNELS 3 Zrotation Xrotation Yrotation
                JOINT LeftToeBase
                {
                    OFFSET -0.000000 -5.735999 13.236923
                    CHANNELS 3 Zrotation Xrotation Yrotation
                    End Site
                    {
                        OFFSET -0.000000 0.000000 3.529846
                    }
                }
            }
        }
    }
    JOINT RightUpLeg
    {
        OFFSET -8.824615 0.000000 0.000000
        CHANNELS 3 Zrotation Xrotation Yrotation
        JOINT RightLeg
        {
            OFFSET -0.000000 -35.111282 0.000000
            CHANNELS 3 Zrotation Xrotation Yrotation
            JOINT RightFoot
            {
                OFFSET -0.000000 -42.324711 0.000000
                CHANNELS 3 Zrotation Xrotation Yrotation
                JOINT RightToeBase
                {
                    OFFSET -0.000000 -5.735999 13.236923
                    CHANNELS 3 Zrotation Xrotation Yrotation
                    End Site
                    {
                        OFFSET -0.000000 0.000000 3.529846
                    }
                }
            }
        }
    }
}
MOTION
Frames:    10
Frame Time:    0.008333
7.071704    88.460365    94.392845    29.237333    45.620621    -106.200348    3.236491    -5.287372    -0.183473    14.582403    4.731812    -0.938842    9.714751    18.999971    -27.367346    29.566177    1.563042    -24.776644    10.741135    0.902072    -16.286383    -15.441552    12.609779    -68.303894    21.339531    -19.266796    -121.619522    4.237369    20.643038    14.150424    4.992520    12.290998    -4.414179    28.556757    22.980440    14.390430    -2.080135    -3.829563    2.837301    -33.659367    -0.833550    -9.718216    56.548519    -35.020676    25.165981    0.748496    31.451275    9.845592    2.493494    -12.942430    -14.714025    -0.173392    -0.530850    0.192384    -65.623169    -36.574677    -30.625969    13.567700    50.799751    -7.350770    6.079216    2.249517    -17.526592    2.441888    -1.297630    -2.645777
6.913217    88.503815    94.362053    28.745100    45.466732    -105.902306    3.126047    -5.396812    -0.287974    14.643402    4.940762    -1.070563    9.828004    18.829657    -27.446041    29.188786    1.449803    -24.890926    10.920797    0.758101    -16.530979    -15.386555    12.598465    -68.846214    21.757505    -18.838821    -120.028252    5.144363    20.655767    13.890876    5.039472    12.257857    -4.781150    28.897280    22.884457    13.980054    -2.162143    -4.029629    3.162769    -33.519817    -1.024395    -9.765736    56.023170    -34.634026    24.938257    0.814609    31.309080    9.851175    2.568416    -12.869965    -14.565327    -0.286600    -0.698604    0.318087    -66.027946    -37.159019    -31.536844    15.722486    54.465000    -8.806948    6.168707    2.385848    -17.115088    2.478378    -1.976672    -2.687883
6.734046    88.568665    94.339371    28.233862    45.272259    -105.663651    3.042379    -5.487608    -0.414761    14.658818    5.078133    -1.214109    9.901232    18.694130    -27.486296    28.789120    1.382780    -24.977041    11.091269    0.607085    -16.716864    -15.276031    12.593926    -69.353058    22.176691    -18.461592    -118.378899    6.121073    20.595772    13.696397    5.070577    12.226219    -5.104822    29.224003    22.776533    13.563196    -2.286112    -4.250929    3.550043    -33.364174    -1.236469    -9.809099    55.420074    -34.138023    24.620895    0.857161    31.096401    9.950024    2.661538    -12.751621    -14.382870    -0.407225    -0.878644    0.452114    -66.376045    -37.746761    -32.464581    18.308130    58.121422    -10.690104    6.297982    2.472087    -16.660568    2.499204    -2.599335    -2.712877
6.535102    88.654289    94.325890    27.707697    45.033714    -105.493103    2.990962    -5.553955    -0.565579    14.618858    5.133220    -1.369537    9.932786    18.601492    -27.484253    28.369259    1.361697    -25.029089    11.243952    0.459778    -16.840918    -15.112714    12.600384    -69.811340    22.597898    -18.126810    -116.669716    7.166335    20.474403    13.567900    5.088582    12.199267    -5.378759    29.532055    22.651321    13.140098    -2.451591    -4.490898    4.010159    -33.178726    -1.469203    -9.843193    54.740501    -33.530464    24.219439    0.874076    30.812763    10.151388    2.772151    -12.582423    -14.165778    -0.532706    -1.077112    0.591642    -66.663040    -38.342091    -33.408928    21.480898    61.738224    -13.150718    6.460681    2.503381    -16.177149    2.503150    -3.151635    -2.719323
6.316998    88.760201    94.322655    27.169676    44.747120    -105.398842    2.972541    -5.593110    -0.739730    14.519333    5.100253    -1.535053    9.926049    18.554457    -27.438652    27.927155    1.383286    -25.044161    11.375125    0.324824    -16.905205    -14.906217    12.619717    -70.211296    23.021441    -17.818922    -114.894127    8.284093    20.307678    13.504037    5.096081    12.177218    -5.603767    29.815792    22.505426    12.712126    -2.655193    -4.745760    4.556237    -32.949593    -1.720924    -9.861827    53.984879    -32.809277    23.742714    0.865561    30.457924    10.461962    2.898498    -12.355714    -13.914443    -0.659848    -1.303017    0.733155    -66.884720    -38.950356    -34.369324    25.485197    65.279121    -16.428324    6.648970    2.476551    -15.678799    2.490232    -3.621614    -2.707143
6.081985    88.885033    94.330688    26.626278    44.410393    -105.389229    2.983186    -5.606249    -0.932575    14.362603    4.980865    -1.706644    9.886744    18.550741    -27.350504    27.462599    1.442555    -25.021818    11.483595    0.208592    -16.915535    -14.672453    12.652235    -70.541779    23.444626    -17.521708    -113.057610    9.472495    20.114645    13.501807    5.093928    12.157168    -5.784402    30.067518    22.341248    12.286192    -2.889819    -5.010398    5.197509    -32.666100    -1.988168    -9.859316    53.159096    -31.978720    23.206234    0.834107    30.034950    10.882120    3.036695    -12.065253    -13.632729    -0.783802    -1.564786    0.871299    -67.035660    -39.572880    -35.336369    30.654617    68.663422    -20.859350    6.853421    2.391336    -15.181114    2.461365    -3.997947    -2.677241
5.830564    89.028328    94.350731    26.078907    44.019287    -105.470894    3.015296    -5.599164    -1.139111    14.154358    4.784309    -1.880948    9.822784    18.582834    -27.222036    26.970985    1.533678    -24.963778    11.572695    0.111962    -16.881214    -14.427023    12.698525    -70.796730    23.869249    -17.216499    -111.148262    10.741913    19.912966    13.554314    5.082044    12.134324    -5.931333    30.282171    22.161863    11.869375    -3.147169    -5.281044    5.945392    -32.319370    -2.268472    -9.829973    52.263046    -31.038782    22.624758    0.784882    29.545084    11.410154    3.182178    -11.702107    -13.325844    -0.901971    -1.872333    1.003231    -67.111748    -40.217060    -36.305447    37.533638    71.810013    -26.989130    7.066075    2.250288    -14.693224    2.418482    -4.274625    -2.631673
5.565165    89.188560    94.383278    25.532618    43.572300    -105.649025    3.059645    -5.581072    -1.352500    13.903470    4.527054    -2.053911    9.742927    18.637505    -27.056366    26.448633    1.653104    -24.873621    11.647011    0.033076    -16.812202    -14.186213    12.758690    -70.968925    24.294262    -16.888739    -109.166069    12.096473    19.719933    13.650281    5.058763    12.102767    -6.055232    30.454992    21.974424    11.474991    -3.416672    -5.552132    6.802607    -31.906754    -2.556927    -9.768806    51.302494    -29.998716    22.017513    0.726002    28.994562    12.034663    3.327858    -11.258801    -13.002512    -1.012362    -2.232323    1.126770    -67.107933    -40.886284    -37.264782    46.813721    74.567879    -35.518883    7.278545    2.059884    -14.223938    2.222169    -5.357937    -2.421985
5.287303    89.364944    94.428795    24.990276    43.066650    -105.927429    3.108145    -5.563570    -1.567641    13.617025    4.227939    -2.223727    9.655022    18.701036    -26.855820    25.891455    1.797783    -24.754568    11.713629    -0.033411    -16.717613    -13.963359    12.833008    -71.054337    24.722071    -16.523830    -107.096344    13.551137    19.547289    13.769240    5.022156    12.056284    -6.166661    30.584169    21.787251    11.115963    -3.689041    -5.819930    7.770957    -31.427210    -2.850134    -9.671440    50.278748    -28.867970    21.400423    0.668557    28.389727    12.739559    3.466346    -10.725595    -12.671400    -1.114331    -2.651916    1.241240    -67.020020    -41.587234    -38.208763    59.254601    76.737968    -47.215054    7.484077    1.828207    -13.779130    1.745816    -8.067360    -1.910831
5.000552    89.555481    94.487274    24.458069    42.503353    -106.306412    3.153385    -5.558689    -1.779393    13.303350    3.908370    -2.388477    9.565888    18.759457    -26.623549    25.299494    1.965420    -24.610083    11.778684    -0.093411    -16.605501    -13.769425    12.921428    -71.048737    25.152155    -16.111452    -104.933899    15.115972    19.402393    13.879551    4.969861    11.991339    -6.273070    30.669651    21.609703    10.809599    -3.955164    -6.078833    8.840689    -30.886650    -3.142028    -9.535244    49.199844    -27.667150    20.790592    0.625358    27.744154    13.497424    3.589311    -10.096990    -12.343314    -1.206176    -3.135018    1.344776    -66.844513    -42.321880    -39.126884    74.853569    78.058243    -62.086365    7.674767    1.566424    -13.367140    1.351005    -10.084229    -1.483569
